<svg width="500" height="500" viewBox="0 0 500 500" fill="none" xmlns="http://www.w3.org/2000/svg">
<g clip-path="url(#clip0_37_132)">
<rect width="500" height="500" fill="#BAA68D"/>
<circle cx="49.5" cy="49.5" r="3.5" fill="#D5C8B9"/>
<circle cx="423.5" cy="461.5" r="3.5" fill="#D5C8B9"/>
<circle cx="390.5" cy="168.5" r="3.5" fill="#D5C8B9"/>
<circle cx="52.5" cy="266.5" r="3.5" fill="#D5C8B9"/>
<circle cx="188.5" cy="391.5" r="3.5" fill="#D5C8B9"/>
<circle cx="181.5" cy="89.5" r="3.5" fill="#D5C8B9"/>
<circle cx="426.5" cy="42.5" r="3.5" fill="#D5C8B9"/>
<circle cx="441.5" cy="296.5" r="3.5" fill="#D5C8B9"/>
<circle cx="246.5" cy="259.5" r="3.5" fill="#D5C8B9"/>
<circle cx="85.5" cy="124.5" r="7.5" fill="#D5C8B9"/>
<circle cx="342.5" cy="89.5" r="7.5" fill="#D5C8B9"/>
<circle cx="457.5" cy="213.5" r="7.5" fill="#D5C8B9"/>
<circle cx="283.5" cy="327.5" r="7.5" fill="#D5C8B9"/>
<circle cx="266.5" cy="457.5" r="7.5" fill="#D5C8B9"/>
<circle cx="59.5" cy="373.5" r="7.5" fill="#D5C8B9"/>
<circle cx="211.5" cy="168.5" r="3.5" fill="#A48B6C"/>
<circle cx="258.5" cy="52.5" r="3.5" fill="#A48B6C"/>
<circle cx="437.5" cy="113.5" r="3.5" fill="#A48B6C"/>
<circle cx="380.5" cy="256.5" r="3.5" fill="#A48B6C"/>
<circle cx="454.5" cy="369.5" r="3.5" fill="#A48B6C"/>
<circle cx="335.5" cy="419.5" r="3.5" fill="#A48B6C"/>
<circle cx="108.5" cy="324.5" r="3.5" fill="#A48B6C"/>
<circle cx="42.5" cy="187.5" r="3.5" fill="#A48B6C"/>
<circle cx="56.5" cy="454.5" r="3.5" fill="#A48B6C"/>
<circle cx="134.5" cy="45.5" r="7.5" fill="#A48B6C"/>
<circle cx="157.5" cy="242.5" r="7.5" fill="#A48B6C"/>
<circle cx="298.5" cy="171.5" r="7.5" fill="#A48B6C"/>
<circle cx="383.5" cy="342.5" r="7.5" fill="#A48B6C"/>
<circle cx="149.5" cy="454.5" r="7.5" fill="#A48B6C"/>
</g>
<defs>
<clipPath id="clip0_37_132">
<rect width="500" height="500" fill="white"/>
</clipPath>
</defs>
</svg>
